{"title":"Arthur Christmas 2011 720p TS XviD 5 1 AC3 - ILLUMINATI","uid":6899173,"size":2759186146,"categoryP":"video","categoryS":"hd___movies","magnet":"?xt=urn:btih:617419afbc790d825e207eec9d485846fe3c88eb&amp;dn=Arthur+Christmas+2011+720p+TS+XviD+5+1+AC3+-+ILLUMINATI&amp;tr=udp%3A%2F%2Ftracker.openbittorrent.com%3A80&amp;tr=udp%3A%2F%2Fopen.demonii.com%3A1337&amp;tr=udp%3A%2F%2Ftracker.coppersurfer.tk%3A6969&amp;tr=udp%3A%2F%2Fexodus.desync.com%3A6969","seeders":0,"leechers":0,"uploader":".BONE.","files":4,"time":1324326482,"description":"Format : MPEG-4 Visual\nFormat profile : Advanced Simple@L5\nFormat settings, BVOP : 2\nFormat settings, QPel : No\nFormat settings, GMC : No warppoints\nFormat settings, Matrix : Default (H.263)\nMuxing mode : Packed bitstream\nCodec ID : XVID\nCodec ID/Hint : XviD\nDuration : 1h 31mn\nBit rate : 3 559 Kbps\nWidth : 1 280 pixels\nHeight : 544 pixels\nDisplay aspect ratio : 2.35:1\nFrame rate : 24.000 fps\nColor space : YUV\nChroma subsampling : 4:2:0\nBit depth : 8 bits\nScan type : Progressive\nCompression mode : Lossy\nBits/(Pixel*Frame) : 0.213\nStream size : 2.27 GiB (90%)\nWriting library : XviD 64\n\nAudio\nID : 1\nFormat : AC-3\nFormat/Info : Audio Coding 3\nMode extension : CM (complete main)\nCodec ID : 2000\nDuration : 1h 31mn\nBit rate mode : Constant\nBit rate : 384 Kbps\nChannel(s) : 6 channels\nChannel positions : Front: L C R, Side: L R, LFE\nSampling rate : 48.0 KHz\nBit depth : 16 bits\nCompression mode : Lossy\nStream size : 251 MiB (10%)\nAlignment : Aligned on interleaves\nInterleave, duration : 42 ms (1.00 video frame)\n &lt;a href=&quot;\nhttp://img440.imageshack.us/img440/1102/vlcsnap2011121918h52m35.png&quot; rel=&quot;nofollow&quot; target=&quot;_NEW&quot;&gt;\nhttp://img440.imageshack.us/img440/1102/vlcsnap2011121918h52m35.png&lt;/a&gt;\n &lt;a href=&quot;\nhttp://img828.imageshack.us/img828/3884/vlcsnap2011121918h52m50.png&quot; rel=&quot;nofollow&quot; target=&quot;_NEW&quot;&gt;\nhttp://img828.imageshack.us/img828/3884/vlcsnap2011121918h52m50.png&lt;/a&gt;\n &lt;a href=&quot;\nhttp://img69.imageshack.us/img69/5388/vlcsnap2011121918h52m56.png&quot; rel=&quot;nofollow&quot; target=&quot;_NEW&quot;&gt;\nhttp://img69.imageshack.us/img69/5388/vlcsnap2011121918h52m56.png&lt;/a&gt;","torrent":{"xt":"urn:btih:617419afbc790d825e207eec9d485846fe3c88eb","amp;dn":"Arthur+Christmas+2011+720p+TS+XviD+5+1+AC3+-+ILLUMINATI","amp;tr":["udp%3A%2F%2Ftracker.openbittorrent.com%3A80","udp%3A%2F%2Fopen.demonii.com%3A1337","udp%3A%2F%2Ftracker.coppersurfer.tk%3A6969","udp%3A%2F%2Fexodus.desync.com%3A6969"],"infoHash":"617419afbc790d825e207eec9d485846fe3c88eb","infoHashBuffer":{"type":"Buffer","data":[97,116,25,175,188,121,13,130,94,32,126,236,157,72,88,70,254,60,136,235]},"announce":[],"urlList":[]}}